<?xml version="1.0" encoding="UTF-8" standalone="no"?>
<!DOCTYPE svg PUBLIC "-//W3C//DTD SVG 1.1//EN"
 "http://www.w3.org/Graphics/SVG/1.1/DTD/svg11.dtd">
<!-- Generated by graphviz version 2.28.0 (20111028.1807)
 -->
<!-- Title: G Pages: 1 -->
<svg width="364pt" height="616pt"
 viewBox="0.00 0.00 364.00 616.00" xmlns="http://www.w3.org/2000/svg" xmlns:xlink="http://www.w3.org/1999/xlink">
<g id="graph1" class="graph" transform="scale(1 1) rotate(0) translate(4 612)">
<title>G</title>
<polygon fill="white" stroke="white" points="-4,5 -4,-612 361,-612 361,5 -4,5"/>
<g id="graph2" class="cluster"><title>cluster_default</title>
<polyline fill="none" stroke="none" points="20,-8 336,-8 "/>
<path fill="none" stroke="none" d="M336,-8C342,-8 348,-14 348,-20"/>
<polyline fill="none" stroke="none" points="348,-20 348,-588 "/>
<path fill="none" stroke="none" d="M348,-588C348,-594 342,-600 336,-600"/>
<polyline fill="none" stroke="none" points="336,-600 20,-600 "/>
<path fill="none" stroke="none" d="M20,-600C14,-600 8,-594 8,-588"/>
<polyline fill="none" stroke="none" points="8,-588 8,-20 "/>
<path fill="none" stroke="none" d="M8,-20C8,-14 14,-8 20,-8"/>
</g>
<!-- \\AccesAuxDonnees -->
<g id="node2" class="node"><title>\\AccesAuxDonnees</title>
<a xlink:href="db_AccesAuxDonnees.classe.html" xlink:title="AccesAuxDonnees" target="_parent">
<polygon fill="none" stroke="black" points="313.516,-592 198.484,-592 198.484,-556 313.516,-556 313.516,-592"/>
<text text-anchor="middle" x="256" y="-569.6" font-family="Courier,monospace" font-size="11.00">AccesAuxDonnees</text>
</a>
</g>
<!-- \\AccesAuxDonneesDev -->
<g id="node3" class="node"><title>\\AccesAuxDonneesDev</title>
<a xlink:href="db_AccesAuxDonneesDev.classe.html" xlink:title="AccesAuxDonneesDev" target="_parent">
<polygon fill="none" stroke="black" points="323.319,-538 188.681,-538 188.681,-502 323.319,-502 323.319,-538"/>
<text text-anchor="middle" x="256" y="-515.6" font-family="Courier,monospace" font-size="11.00">AccesAuxDonneesDev</text>
</a>
</g>
<!-- \\Calendrier -->
<g id="node4" class="node"><title>\\Calendrier</title>
<a xlink:href="db_Calendrier.classe.html" xlink:title="Calendrier" target="_parent">
<polygon fill="none" stroke="black" points="297.011,-484 214.989,-484 214.989,-448 297.011,-448 297.011,-484"/>
<text text-anchor="middle" x="256" y="-461.6" font-family="Courier,monospace" font-size="11.00">Calendrier</text>
</a>
</g>
<!-- \\Module -->
<g id="node5" class="node"><title>\\Module</title>
<a xlink:href="db_Module.classe.html" xlink:title="Module" target="_parent">
<polygon fill="none" stroke="black" points="85.6078,-349 30.3922,-349 30.3922,-313 85.6078,-313 85.6078,-349"/>
<text text-anchor="middle" x="58" y="-326.6" font-family="Courier,monospace" font-size="11.00">Module</text>
</a>
</g>
<!-- \\ModuleAdminUtilisateurs -->
<g id="node6" class="node"><title>\\ModuleAdminUtilisateurs</title>
<a xlink:href="db_ModuleAdminUtilisateurs.classe.html" xlink:title="ModuleAdminUtilisateurs" target="_parent">
<polygon fill="none" stroke="black" points="339.825,-430 172.175,-430 172.175,-394 339.825,-394 339.825,-430"/>
<text text-anchor="middle" x="256" y="-407.6" font-family="Courier,monospace" font-size="11.00">ModuleAdminUtilisateurs</text>
</a>
</g>
<!-- \\ModuleAdminUtilisateurs&#45;&gt;\\Module -->
<g id="edge3" class="edge"><title>\\ModuleAdminUtilisateurs&#45;&gt;\\Module</title>
<path fill="none" stroke="black" d="M196.16,-393.922C187.984,-391.102 179.739,-388.092 172,-385 145.676,-374.481 116.857,-360.671 94.9107,-349.65"/>
<polygon fill="none" stroke="black" points="96.4562,-346.509 85.9535,-345.115 93.2943,-352.754 96.4562,-346.509"/>
</g>
<!-- \\ModuleGroupes -->
<g id="node7" class="node"><title>\\ModuleGroupes</title>
<a xlink:href="db_ModuleGroupes.classe.html" xlink:title="ModuleGroupes" target="_parent">
<polygon fill="none" stroke="black" points="306.814,-376 205.186,-376 205.186,-340 306.814,-340 306.814,-376"/>
<text text-anchor="middle" x="256" y="-353.6" font-family="Courier,monospace" font-size="11.00">ModuleGroupes</text>
</a>
</g>
<!-- \\ModuleGroupes&#45;&gt;\\Module -->
<g id="edge5" class="edge"><title>\\ModuleGroupes&#45;&gt;\\Module</title>
<path fill="none" stroke="black" d="M205.034,-351.117C170.898,-346.414 126.431,-340.289 95.5761,-336.039"/>
<polygon fill="none" stroke="black" points="96.0527,-332.571 85.6685,-334.674 95.0973,-339.506 96.0527,-332.571"/>
</g>
<!-- \\ModuleProfil -->
<g id="node8" class="node"><title>\\ModuleProfil</title>
<a xlink:href="db_ModuleProfil.classe.html" xlink:title="ModuleProfil" target="_parent">
<polygon fill="none" stroke="black" points="303.713,-322 208.287,-322 208.287,-286 303.713,-286 303.713,-322"/>
<text text-anchor="middle" x="256" y="-299.6" font-family="Courier,monospace" font-size="11.00">ModuleProfil</text>
</a>
</g>
<!-- \\ModuleProfil&#45;&gt;\\Module -->
<g id="edge7" class="edge"><title>\\ModuleProfil&#45;&gt;\\Module</title>
<path fill="none" stroke="black" d="M208.053,-310.467C173.662,-315.205 127.632,-321.546 95.8684,-325.921"/>
<polygon fill="none" stroke="black" points="95.1093,-322.493 85.6805,-327.325 96.0646,-329.427 95.1093,-322.493"/>
</g>
<!-- \\ModuleRecherche -->
<g id="node9" class="node"><title>\\ModuleRecherche</title>
<a xlink:href="db_ModuleRecherche.classe.html" xlink:title="ModuleRecherche" target="_parent">
<polygon fill="none" stroke="black" points="313.516,-268 198.484,-268 198.484,-232 313.516,-232 313.516,-268"/>
<text text-anchor="middle" x="256" y="-245.6" font-family="Courier,monospace" font-size="11.00">ModuleRecherche</text>
</a>
</g>
<!-- \\ModuleRecherche&#45;&gt;\\Module -->
<g id="edge9" class="edge"><title>\\ModuleRecherche&#45;&gt;\\Module</title>
<path fill="none" stroke="black" d="M198.388,-267.313C189.487,-270.351 180.443,-273.626 172,-277 145.676,-287.519 116.857,-301.329 94.9107,-312.35"/>
<polygon fill="none" stroke="black" points="93.2943,-309.246 85.9535,-316.885 96.4562,-315.491 93.2943,-309.246"/>
</g>
<!-- \\Page -->
<g id="node10" class="node"><title>\\Page</title>
<a xlink:href="db_Page.classe.html" xlink:title="«abstract»&lt;br/&gt;Page" target="_parent">
<polygon fill="none" stroke="black" points="99.5,-187 16.5,-187 16.5,-151 99.5,-151 99.5,-187"/>
<text text-anchor="start" x="25" y="-170.5" font-family="Courier,monospace" font-size="11.00">«abstract»</text>
<text text-anchor="start" x="45" y="-159.5" font-family="Courier,monospace" font-size="11.00">Page</text>
</a>
</g>
<!-- \\PageModule -->
<g id="node11" class="node"><title>\\PageModule</title>
<a xlink:href="db_PageModule.classe.html" xlink:title="PageModule" target="_parent">
<polygon fill="none" stroke="black" points="297.011,-214 214.989,-214 214.989,-178 297.011,-178 297.011,-214"/>
<text text-anchor="middle" x="256" y="-191.6" font-family="Courier,monospace" font-size="11.00">PageModule</text>
</a>
</g>
<!-- \\PageModule&#45;&gt;\\Page -->
<g id="edge11" class="edge"><title>\\PageModule&#45;&gt;\\Page</title>
<path fill="none" stroke="black" d="M214.864,-190.471C184.546,-186.295 142.717,-180.532 110.024,-176.029"/>
<polygon fill="none" stroke="black" points="110.14,-172.512 99.7564,-174.614 109.185,-179.446 110.14,-172.512"/>
</g>
<!-- \\PageStandard -->
<g id="node12" class="node"><title>\\PageStandard</title>
<a xlink:href="db_PageStandard.classe.html" xlink:title="PageStandard" target="_parent">
<polygon fill="none" stroke="black" points="303.713,-160 208.287,-160 208.287,-124 303.713,-124 303.713,-160"/>
<text text-anchor="middle" x="256" y="-137.6" font-family="Courier,monospace" font-size="11.00">PageStandard</text>
</a>
</g>
<!-- \\PageStandard&#45;&gt;\\Page -->
<g id="edge13" class="edge"><title>\\PageStandard&#45;&gt;\\Page</title>
<path fill="none" stroke="black" d="M208.053,-148.467C178.342,-152.56 139.946,-157.849 109.564,-162.034"/>
<polygon fill="none" stroke="black" points="109.022,-158.576 99.5927,-163.408 109.977,-165.511 109.022,-158.576"/>
</g>
<!-- \\RequeteSQL -->
<g id="node13" class="node"><title>\\RequeteSQL</title>
<a xlink:href="db_RequeteSQL.classe.html" xlink:title="RequeteSQL" target="_parent">
<polygon fill="none" stroke="black" points="297.011,-106 214.989,-106 214.989,-70 297.011,-70 297.011,-106"/>
<text text-anchor="middle" x="256" y="-83.6" font-family="Courier,monospace" font-size="11.00">RequeteSQL</text>
</a>
</g>
<!-- \\SessionUtilisateur -->
<g id="node14" class="node"><title>\\SessionUtilisateur</title>
<a xlink:href="db_SessionUtilisateur.classe.html" xlink:title="SessionUtilisateur" target="_parent">
<polygon fill="none" stroke="black" points="323.319,-52 188.681,-52 188.681,-16 323.319,-16 323.319,-52"/>
<text text-anchor="middle" x="256" y="-29.6" font-family="Courier,monospace" font-size="11.00">SessionUtilisateur</text>
</a>
</g>
</g>
</svg>
