<?xml version="1.0" encoding="UTF-8" standalone="no"?>
<!DOCTYPE svg PUBLIC "-//W3C//DTD SVG 1.1//EN"
 "http://www.w3.org/Graphics/SVG/1.1/DTD/svg11.dtd">
<!-- Generated by graphviz version 2.28.0 (20111028.1807)
 -->
<!-- Title: G Pages: 1 -->
<svg width="364pt" height="751pt"
 viewBox="0.00 0.00 364.00 751.00" xmlns="http://www.w3.org/2000/svg" xmlns:xlink="http://www.w3.org/1999/xlink">
<g id="graph1" class="graph" transform="scale(1 1) rotate(0) translate(4 747)">
<title>G</title>
<polygon fill="white" stroke="white" points="-4,5 -4,-747 361,-747 361,5 -4,5"/>
<g id="graph2" class="cluster"><title>cluster_Paginator</title>
<polyline fill="none" stroke="gray" points="222,-8 290,-8 "/>
<path fill="none" stroke="gray" d="M290,-8C296,-8 302,-14 302,-20"/>
<polyline fill="none" stroke="gray" points="302,-20 302,-69 "/>
<path fill="none" stroke="gray" d="M302,-69C302,-75 296,-81 290,-81"/>
<polyline fill="none" stroke="gray" points="290,-81 222,-81 "/>
<path fill="none" stroke="gray" d="M222,-81C216,-81 210,-75 210,-69"/>
<polyline fill="none" stroke="gray" points="210,-69 210,-20 "/>
<path fill="none" stroke="gray" d="M210,-20C210,-14 216,-8 222,-8"/>
<text text-anchor="middle" x="256" y="-66" font-family="Times,serif" font-size="11.00" fill="gray">Paginator</text>
</g>
<g id="graph3" class="cluster"><title>cluster_default</title>
<polyline fill="none" stroke="none" points="20,-89 336,-89 "/>
<path fill="none" stroke="none" d="M336,-89C342,-89 348,-95 348,-101"/>
<polyline fill="none" stroke="none" points="348,-101 348,-723 "/>
<path fill="none" stroke="none" d="M348,-723C348,-729 342,-735 336,-735"/>
<polyline fill="none" stroke="none" points="336,-735 20,-735 "/>
<path fill="none" stroke="none" d="M20,-735C14,-735 8,-729 8,-723"/>
<polyline fill="none" stroke="none" points="8,-723 8,-101 "/>
<path fill="none" stroke="none" d="M8,-101C8,-95 14,-89 20,-89"/>
</g>
<!-- \\Paginator\\Paginator -->
<g id="node2" class="node"><title>\\Paginator\\Paginator</title>
<a xlink:href="db_paginator.html" xlink:title="Paginator" target="_parent">
<polygon fill="none" stroke="black" points="293.911,-52 218.089,-52 218.089,-16 293.911,-16 293.911,-52"/>
<text text-anchor="middle" x="256" y="-29.6" font-family="Courier,monospace" font-size="11.00">Paginator</text>
</a>
</g>
<!-- \\AccesAuxDonnees -->
<g id="node4" class="node"><title>\\AccesAuxDonnees</title>
<a xlink:href="db_AccesAuxDonnees.classe.html" xlink:title="AccesAuxDonnees" target="_parent">
<polygon fill="none" stroke="black" points="313.516,-727 198.484,-727 198.484,-691 313.516,-691 313.516,-727"/>
<text text-anchor="middle" x="256" y="-704.6" font-family="Courier,monospace" font-size="11.00">AccesAuxDonnees</text>
</a>
</g>
<!-- \\AccesAuxDonneesDev -->
<g id="node5" class="node"><title>\\AccesAuxDonneesDev</title>
<a xlink:href="db_AccesAuxDonneesDev.classe.html" xlink:title="AccesAuxDonneesDev" target="_parent">
<polygon fill="none" stroke="black" points="323.319,-673 188.681,-673 188.681,-637 323.319,-637 323.319,-673"/>
<text text-anchor="middle" x="256" y="-650.6" font-family="Courier,monospace" font-size="11.00">AccesAuxDonneesDev</text>
</a>
</g>
<!-- \\Calendrier -->
<g id="node6" class="node"><title>\\Calendrier</title>
<a xlink:href="db_Calendrier.classe.html" xlink:title="Calendrier" target="_parent">
<polygon fill="none" stroke="black" points="297.011,-619 214.989,-619 214.989,-583 297.011,-583 297.011,-619"/>
<text text-anchor="middle" x="256" y="-596.6" font-family="Courier,monospace" font-size="11.00">Calendrier</text>
</a>
</g>
<!-- \\ComposantRecherche -->
<g id="node7" class="node"><title>\\ComposantRecherche</title>
<a xlink:href="db_ComposantRecherche.classe.html" xlink:title="ComposantRecherche" target="_parent">
<polygon fill="none" stroke="black" points="323.319,-565 188.681,-565 188.681,-529 323.319,-529 323.319,-565"/>
<text text-anchor="middle" x="256" y="-542.6" font-family="Courier,monospace" font-size="11.00">ComposantRecherche</text>
</a>
</g>
<!-- \\Module -->
<g id="node8" class="node"><title>\\Module</title>
<a xlink:href="db_Module.classe.html" xlink:title="Module" target="_parent">
<polygon fill="none" stroke="black" points="85.6078,-457 30.3922,-457 30.3922,-421 85.6078,-421 85.6078,-457"/>
<text text-anchor="middle" x="58" y="-434.6" font-family="Courier,monospace" font-size="11.00">Module</text>
</a>
</g>
<!-- \\ComposantRecherche&#45;&gt;\\Module -->
<g id="edge4" class="edge"><title>\\ComposantRecherche&#45;&gt;\\Module</title>
<path fill="none" stroke="black" d="M192.514,-528.992C185.465,-526.283 178.491,-523.282 172,-520 141.44,-504.545 110.047,-481.343 88.1291,-463.726"/>
<polygon fill="none" stroke="black" points="90.1774,-460.881 80.2145,-457.276 85.7551,-466.307 90.1774,-460.881"/>
</g>
<!-- \\ModuleAdminUtilisateurs -->
<g id="node9" class="node"><title>\\ModuleAdminUtilisateurs</title>
<a xlink:href="db_ModuleAdminUtilisateurs.classe.html" xlink:title="ModuleAdminUtilisateurs" target="_parent">
<polygon fill="none" stroke="black" points="339.825,-511 172.175,-511 172.175,-475 339.825,-475 339.825,-511"/>
<text text-anchor="middle" x="256" y="-488.6" font-family="Courier,monospace" font-size="11.00">ModuleAdminUtilisateurs</text>
</a>
</g>
<!-- \\ModuleAdminUtilisateurs&#45;&gt;\\Module -->
<g id="edge6" class="edge"><title>\\ModuleAdminUtilisateurs&#45;&gt;\\Module</title>
<path fill="none" stroke="black" d="M189.462,-474.944C158.22,-466.336 122.016,-456.362 95.6844,-449.107"/>
<polygon fill="none" stroke="black" points="96.3253,-445.653 85.7548,-446.371 94.4659,-452.402 96.3253,-445.653"/>
</g>
<!-- \\ModuleGroupes -->
<g id="node10" class="node"><title>\\ModuleGroupes</title>
<a xlink:href="db_ModuleGroupes.classe.html" xlink:title="ModuleGroupes" target="_parent">
<polygon fill="none" stroke="black" points="306.814,-457 205.186,-457 205.186,-421 306.814,-421 306.814,-457"/>
<text text-anchor="middle" x="256" y="-434.6" font-family="Courier,monospace" font-size="11.00">ModuleGroupes</text>
</a>
</g>
<!-- \\ModuleGroupes&#45;&gt;\\Module -->
<g id="edge8" class="edge"><title>\\ModuleGroupes&#45;&gt;\\Module</title>
<path fill="none" stroke="black" d="M205.034,-439C171.046,-439 126.818,-439 95.9793,-439"/>
<polygon fill="none" stroke="black" points="95.6686,-435.5 85.6685,-439 95.6685,-442.5 95.6686,-435.5"/>
</g>
<!-- \\ModuleProfil -->
<g id="node11" class="node"><title>\\ModuleProfil</title>
<a xlink:href="db_ModuleProfil.classe.html" xlink:title="ModuleProfil" target="_parent">
<polygon fill="none" stroke="black" points="303.713,-403 208.287,-403 208.287,-367 303.713,-367 303.713,-403"/>
<text text-anchor="middle" x="256" y="-380.6" font-family="Courier,monospace" font-size="11.00">ModuleProfil</text>
</a>
</g>
<!-- \\ModuleProfil&#45;&gt;\\Module -->
<g id="edge10" class="edge"><title>\\ModuleProfil&#45;&gt;\\Module</title>
<path fill="none" stroke="black" d="M208.053,-397.934C173.512,-407.451 127.232,-420.201 95.4549,-428.956"/>
<polygon fill="none" stroke="black" points="94.3916,-425.619 85.6805,-431.649 96.251,-432.367 94.3916,-425.619"/>
</g>
<!-- \\ModuleRecherche -->
<g id="node12" class="node"><title>\\ModuleRecherche</title>
<a xlink:href="db_ModuleRecherche.classe.html" xlink:title="ModuleRecherche" target="_parent">
<polygon fill="none" stroke="black" points="313.516,-349 198.484,-349 198.484,-313 313.516,-313 313.516,-349"/>
<text text-anchor="middle" x="256" y="-326.6" font-family="Courier,monospace" font-size="11.00">ModuleRecherche</text>
</a>
</g>
<!-- \\ModuleRecherche&#45;&gt;\\Module -->
<g id="edge12" class="edge"><title>\\ModuleRecherche&#45;&gt;\\Module</title>
<path fill="none" stroke="black" d="M198.25,-346.871C189.279,-350.112 180.249,-353.829 172,-358 141.44,-373.455 110.047,-396.657 88.1291,-414.274"/>
<polygon fill="none" stroke="black" points="85.7551,-411.693 80.2145,-420.724 90.1774,-417.119 85.7551,-411.693"/>
</g>
<!-- \\Page -->
<g id="node13" class="node"><title>\\Page</title>
<a xlink:href="db_Page.classe.html" xlink:title="«abstract»&lt;br/&gt;Page" target="_parent">
<polygon fill="none" stroke="black" points="99.5,-268 16.5,-268 16.5,-232 99.5,-232 99.5,-268"/>
<text text-anchor="start" x="25" y="-251.5" font-family="Courier,monospace" font-size="11.00">«abstract»</text>
<text text-anchor="start" x="45" y="-240.5" font-family="Courier,monospace" font-size="11.00">Page</text>
</a>
</g>
<!-- \\PageModule -->
<g id="node14" class="node"><title>\\PageModule</title>
<a xlink:href="db_PageModule.classe.html" xlink:title="PageModule" target="_parent">
<polygon fill="none" stroke="black" points="297.011,-295 214.989,-295 214.989,-259 297.011,-259 297.011,-295"/>
<text text-anchor="middle" x="256" y="-272.6" font-family="Courier,monospace" font-size="11.00">PageModule</text>
</a>
</g>
<!-- \\PageModule&#45;&gt;\\Page -->
<g id="edge14" class="edge"><title>\\PageModule&#45;&gt;\\Page</title>
<path fill="none" stroke="black" d="M214.864,-271.471C184.546,-267.295 142.717,-261.532 110.024,-257.029"/>
<polygon fill="none" stroke="black" points="110.14,-253.512 99.7564,-255.614 109.185,-260.446 110.14,-253.512"/>
</g>
<!-- \\PageStandard -->
<g id="node15" class="node"><title>\\PageStandard</title>
<a xlink:href="db_PageStandard.classe.html" xlink:title="PageStandard" target="_parent">
<polygon fill="none" stroke="black" points="303.713,-241 208.287,-241 208.287,-205 303.713,-205 303.713,-241"/>
<text text-anchor="middle" x="256" y="-218.6" font-family="Courier,monospace" font-size="11.00">PageStandard</text>
</a>
</g>
<!-- \\PageStandard&#45;&gt;\\Page -->
<g id="edge16" class="edge"><title>\\PageStandard&#45;&gt;\\Page</title>
<path fill="none" stroke="black" d="M208.053,-229.467C178.342,-233.56 139.946,-238.849 109.564,-243.034"/>
<polygon fill="none" stroke="black" points="109.022,-239.576 99.5927,-244.408 109.977,-246.511 109.022,-239.576"/>
</g>
<!-- \\RequeteSQL -->
<g id="node16" class="node"><title>\\RequeteSQL</title>
<a xlink:href="db_RequeteSQL.classe.html" xlink:title="RequeteSQL" target="_parent">
<polygon fill="none" stroke="black" points="297.011,-187 214.989,-187 214.989,-151 297.011,-151 297.011,-187"/>
<text text-anchor="middle" x="256" y="-164.6" font-family="Courier,monospace" font-size="11.00">RequeteSQL</text>
</a>
</g>
<!-- \\SessionUtilisateur -->
<g id="node17" class="node"><title>\\SessionUtilisateur</title>
<a xlink:href="db_SessionUtilisateur.classe.html" xlink:title="SessionUtilisateur" target="_parent">
<polygon fill="none" stroke="black" points="323.319,-133 188.681,-133 188.681,-97 323.319,-97 323.319,-133"/>
<text text-anchor="middle" x="256" y="-110.6" font-family="Courier,monospace" font-size="11.00">SessionUtilisateur</text>
</a>
</g>
</g>
</svg>
